<?xml version="1.0" encoding="utf-8"?>
<!-- Uploaded to: SVG Repo, www.svgrepo.com, Generator: SVG Repo Mixer Tools -->
<svg fill="#000000" width="800px" height="800px" viewBox="0 0 32 32" version="1.1" xmlns="http://www.w3.org/2000/svg">
<title>crop</title>
<path d="M0 28v4h4v-1.984h-1.984v-2.016h-2.016zM0 4h2.016v-1.984h1.984v-2.016h-4v4zM4 28h24v-24h-24v24zM8 24v-16h16v16h-16zM10.016 22.016h2.656q-0.352-0.16-0.768-0.608t-1.056-1.28-0.832-1.12v3.008zM10.016 12q0 0.832 0.576 1.44t1.408 0.576 1.408-0.576 0.608-1.44-0.608-1.408-1.408-0.576-1.408 0.576-0.576 1.408zM13.216 22.016h8.8v-7.328q-0.48-0.512-0.96-0.608t-0.992 0.16-0.96 0.8-1.024 1.184-0.992 1.408-1.024 1.472-0.96 1.344-0.96 1.024-0.928 0.544zM28 30.016v1.984h4v-4h-1.984v2.016h-2.016zM28 2.016h2.016v1.984h1.984v-4h-4v2.016z"></path>
</svg>