<?xml version="1.0" encoding="UTF-8" standalone="no"?>
<!DOCTYPE svg PUBLIC "-//W3C//DTD SVG 1.1//EN" "http://www.w3.org/Graphics/SVG/1.1/DTD/svg11.dtd">
<!-- 由 Microsoft Visio, SVG Export 生成 RobHand.svg icon -->
<svg xmlns="http://www.w3.org/2000/svg" xmlns:xlink="http://www.w3.org/1999/xlink" xmlns:ev="http://www.w3.org/2001/xml-events"
		xmlns:v="http://schemas.microsoft.com/visio/2003/SVGExtensions/" width="6.35207in" height="6.35209in"
		viewBox="0 0 457.349 457.35" xml:space="preserve" color-interpolation-filters="sRGB" class="st7">
	<v:documentProperties v:langID="2052" v:metric="true" v:viewMarkup="false">
		<v:userDefs>
			<v:ud v:nameU="msvSubprocessMaster" v:prompt="" v:val="VT4(Rectangle)"/>
			<v:ud v:nameU="msvNoAutoConnect" v:val="VT0(1):26"/>
		</v:userDefs>
	</v:documentProperties>

	<style type="text/css">
	<![CDATA[
		.st1 {fill:#ffffff;stroke:#7f7f7f;stroke-width:12.25}
		.st2 {fill:#a5a5a5;stroke:none;stroke-width:0.25}
		.st3 {fill:#ffc000;stroke:#1e4e79;stroke-width:8.5}
		.st4 {fill:#ffc000;stroke:#16aee0;stroke-width:8.5}
		.st5 {stroke:#1e4e79;stroke-linecap:round;stroke-linejoin:round;stroke-width:8.5}
		.st6 {fill:#a5a5a5;stroke:#16aee0;stroke-width:6.75}
		.st7 {fill:none;fill-rule:evenodd;font-size:12px;overflow:visible;stroke-linecap:square;stroke-miterlimit:3}
	]]>
	</style>

	<g v:mID="0" v:index="1" v:groupContext="foregroundPage">
		<v:userDefs>
			<v:ud v:nameU="msvThemeOrder" v:val="VT0(0):26"/>
		</v:userDefs>
		<title>icon</title>
		<v:pageProperties v:drawingScale="0.0393701" v:pageScale="0.0393701" v:drawingUnits="24" v:shadowOffsetX="8.50394"
				v:shadowOffsetY="-8.50394"/>
		<g id="shape1-1" v:mID="1" v:groupContext="shape" transform="translate(30.2492,-56.6929)">
			<title>圆角矩形</title>
			<v:userDefs>
				<v:ud v:nameU="CTypeTopLeftSnip" v:prompt="" v:val="VT0(0):5"/>
				<v:ud v:nameU="CTypeTopRightSnip" v:prompt="" v:val="VT0(0):5"/>
				<v:ud v:nameU="CTypeBotLeftSnip" v:prompt="" v:val="VT0(0):5"/>
				<v:ud v:nameU="CTypeBotRightSnip" v:prompt="" v:val="VT0(0):5"/>
				<v:ud v:nameU="CornerLockHoriz" v:prompt="" v:val="VT0(1):5"/>
				<v:ud v:nameU="CornerLockVert" v:prompt="" v:val="VT0(1):5"/>
				<v:ud v:nameU="CornerLockDiag" v:prompt="" v:val="VT0(0):5"/>
				<v:ud v:nameU="TopLeftOffset" v:prompt="" v:val="VT0(0.15748031496063):24"/>
				<v:ud v:nameU="TopRightOffset" v:prompt="" v:val="VT0(0.15748031496063):24"/>
				<v:ud v:nameU="BotLeftOffset" v:prompt="" v:val="VT0(0.15748031496063):24"/>
				<v:ud v:nameU="BotRightOffset" v:prompt="" v:val="VT0(0.15748031496063):24"/>
				<v:ud v:nameU="visVersion" v:prompt="" v:val="VT0(15):26"/>
				<v:ud v:nameU="TopLeftOffset" v:prompt="" v:val="VT0(0.65313367620955):1"/>
				<v:ud v:nameU="TopRightOffset" v:prompt="" v:val="VT0(0.65313367620955):1"/>
				<v:ud v:nameU="BotLeftOffset" v:prompt="" v:val="VT0(0.65313367620955):1"/>
				<v:ud v:nameU="BotRightOffset" v:prompt="" v:val="VT0(0.65313367620955):1"/>
			</v:userDefs>
			<path d="M47.03 457.35 L349.82 457.35 A47.0249 47.0249 -180 0 0 396.85 410.32 L396.85 164.22 A47.0249 47.0249 -180 0
						 0 349.82 117.19 L47.03 117.19 A47.0249 47.0249 -180 0 0 0 164.22 L0 410.32 A47.0249 47.0249 -180 0 0 47.03
						 457.35 Z" class="st1"/>
		</g>
		<g id="group47-3" transform="translate(72.4024,-85.9891)" v:mID="47" v:groupContext="group">
			<title>工作表.47</title>
			<g id="shape46-4" v:mID="46" v:groupContext="shape" transform="translate(181.255,0)">
				<title>矩形.46</title>
				<v:userDefs>
					<v:ud v:nameU="visVersion" v:val="VT0(15):26"/>
				</v:userDefs>
				<rect x="0" y="384.159" width="130.888" height="73.1916" class="st2"/>
			</g>
			<g id="shape10-6" v:mID="10" v:groupContext="shape" transform="translate(136.438,-220.742)">
				<title>圆形.10</title>
				<v:userDefs>
					<v:ud v:nameU="visVersion" v:val="VT0(15):26"/>
				</v:userDefs>
				<path d="M0 425.04 A32.315 32.315 0 0 1 64.63 425.04 A32.315 32.315 0 1 1 -0 425.04 Z" class="st3"/>
			</g>
			<g id="shape3-8" v:mID="3" v:groupContext="shape" transform="translate(3.493,-87.514)">
				<title>圆形</title>
				<v:userDefs>
					<v:ud v:nameU="visVersion" v:val="VT0(15):26"/>
				</v:userDefs>
				<path d="M0 406.33 A51.0236 51.0236 0 0 1 102.05 406.33 A51.0236 51.0236 0 1 1 0 406.33 Z" class="st3"/>
			</g>
			<g id="shape4-10" v:mID="4" v:groupContext="shape" transform="translate(29.7135,-113.734)">
				<title>圆形.4</title>
				<v:userDefs>
					<v:ud v:nameU="visVersion" v:val="VT0(15):26"/>
				</v:userDefs>
				<path d="M0 432.9 A24.4488 24.4488 0 0 1 48.9 432.9 A24.4488 24.4488 0 1 1 0 432.9 Z" class="st4"/>
			</g>
			<g id="shape7-12" v:mID="7" v:groupContext="shape" transform="translate(154.008,-238.322)">
				<title>圆形.7</title>
				<v:userDefs>
					<v:ud v:nameU="visVersion" v:val="VT0(15):26"/>
				</v:userDefs>
				<path d="M0 442.61 A14.7425 14.7425 0 1 1 29.48 442.61 A14.7425 14.7425 0 0 1 0 442.61 Z" class="st4"/>
			</g>
			<g id="shape11-14" v:mID="11" v:groupContext="shape" transform="translate(-236.928,-67.8519) rotate(-42.2914)">
				<title>工作表.11</title>
				<path d="M0 457.35 L66.32 457.35" class="st5"/>
			</g>
			<g id="shape12-17" v:mID="12" v:groupContext="shape" transform="translate(-239.514,1.55985) rotate(-49.0675)">
				<title>工作表.12</title>
				<path d="M0 457.35 L86.3 457.35" class="st5"/>
			</g>
			<g id="shape13-20" v:mID="13" v:groupContext="shape" transform="translate(483.111,-108.018) rotate(41.2111)">
				<title>工作表.13</title>
				<path d="M0 457.35 L60.67 457.35" class="st5"/>
			</g>
			<g id="shape14-23" v:mID="14" v:groupContext="shape" transform="translate(542.88,-83.4747) rotate(48.6851)">
				<title>工作表.14</title>
				<path d="M0 457.35 L59.25 457.35" class="st5"/>
			</g>
			<g id="shape19-26" v:mID="19" v:groupContext="shape" transform="translate(-442.057,368.673) rotate(-84.8045)">
				<title>工作表.19</title>
				<path d="M0 457.35 L55.42 457.35" class="st5"/>
			</g>
			<g id="shape20-29" v:mID="20" v:groupContext="shape" transform="translate(-362.062,445.468) rotate(-94.4367)">
				<title>工作表.20</title>
				<path d="M0 457.35 L32.98 457.35" class="st5"/>
			</g>
			<g id="shape24-32" v:mID="24" v:groupContext="shape" transform="translate(-261.284,338.655) rotate(-90)">
				<title>工作表.24</title>
				<path d="M0 457.35 L37 457.35" class="st5"/>
			</g>
			<g id="shape25-35" v:mID="25" v:groupContext="shape" transform="translate(-36.018,-92.4291) rotate(-30.4944)">
				<title>工作表.25</title>
				<path d="M0 457.35 L37.39 457.35" class="st5"/>
			</g>
			<g id="shape26-38" v:mID="26" v:groupContext="shape" transform="translate(77.1087,700.694) rotate(-151.077)">
				<title>工作表.26</title>
				<path d="M0 457.35 L36.6 457.35" class="st5"/>
			</g>
			<g id="shape27-41" v:mID="27" v:groupContext="shape" transform="translate(-159.054,338.655) rotate(-90)">
				<title>工作表.27</title>
				<path d="M0 457.35 L38.27 457.35" class="st5"/>
			</g>
			<g id="shape29-44" v:mID="29" v:groupContext="shape" transform="translate(48.0076,706.776) rotate(-149.744)">
				<title>工作表.29</title>
				<path d="M0 457.35 L19.69 457.35" class="st5"/>
			</g>
			<g id="shape30-47" v:mID="30" v:groupContext="shape" transform="translate(463.065,697.247) rotate(150.018)">
				<title>工作表.30</title>
				<path d="M0 457.35 L21.27 457.35" class="st5"/>
			</g>
			<g id="shape31-50" v:mID="31" v:groupContext="shape" transform="translate(638.419,382.853) rotate(90)">
				<title>工作表.31</title>
				<path d="M0 457.35 L15.71 457.35" class="st5"/>
			</g>
			<g id="shape36-53" v:mID="36" v:groupContext="shape" transform="translate(-144.806,455.957) rotate(-90)">
				<title>工作表.36</title>
				<path d="M0 457.35 L72.8 457.35" class="st5"/>
			</g>
			<g id="shape37-56" v:mID="37" v:groupContext="shape" transform="translate(181.255,-1.39297)">
				<title>工作表.37</title>
				<path d="M0 457.35 L131.29 457.35" class="st5"/>
			</g>
			<g id="shape38-59" v:mID="38" v:groupContext="shape" transform="translate(-276.095,456.01) rotate(-90)">
				<title>工作表.38</title>
				<path d="M0 457.35 L35.26 457.35" class="st5"/>
			</g>
			<g id="shape40-62" v:mID="40" v:groupContext="shape" transform="translate(-142.14,733.124) rotate(-135)">
				<title>工作表.40</title>
				<path d="M0 457.35 L0.14 457.35" class="st5"/>
			</g>
			<g id="shape23-65" v:mID="23" v:groupContext="shape" transform="translate(228.28,-155.669)">
				<title>圆形.23</title>
				<v:userDefs>
					<v:ud v:nameU="visVersion" v:val="VT0(15):26"/>
				</v:userDefs>
				<path d="M0 438.36 A18.9921 18.9921 0 0 1 37.98 438.36 A18.9921 18.9921 0 1 1 0 438.36 Z" class="st4"/>
			</g>
			<g id="shape42-67" v:mID="42" v:groupContext="shape" transform="translate(214.958,-73.6242)">
				<title>矩形</title>
				<v:userDefs>
					<v:ud v:nameU="visVersion" v:val="VT0(15):26"/>
				</v:userDefs>
				<rect x="0" y="399.524" width="64.3465" height="57.8268" class="st6"/>
			</g>
			<g id="shape41-69" v:mID="41" v:groupContext="shape" transform="translate(672.591,311.726) rotate(90)">
				<title>工作表.41</title>
				<path d="M0 457.35 L27.5 457.35" class="st5"/>
			</g>
			<g id="shape32-72" v:mID="32" v:groupContext="shape" transform="translate(735.804,311.726) rotate(90)">
				<title>工作表.32</title>
				<path d="M0 457.35 L28.02 457.35" class="st5"/>
			</g>
			<g id="shape28-75" v:mID="28" v:groupContext="shape" transform="translate(296.879,797.423) rotate(180)">
				<title>工作表.28</title>
				<path d="M0 457.35 L17.01 457.35" class="st5"/>
			</g>
			<g id="shape33-78" v:mID="33" v:groupContext="shape" transform="translate(214.674,797.14) rotate(180)">
				<title>工作表.33</title>
				<path d="M0 457.35 L17.01 457.35" class="st5"/>
			</g>
			<g id="shape35-81" v:mID="35" v:groupContext="shape" transform="translate(181.069,-74.1911)">
				<title>工作表.35</title>
				<path d="M0 457.35 L131.48 457.35" class="st5"/>
			</g>
			<g id="shape45-84" v:mID="45" v:groupContext="shape">
				<title>圆角矩形.44</title>
				<v:userDefs>
					<v:ud v:nameU="CTypeTopLeftSnip" v:prompt="" v:val="VT0(0):5"/>
					<v:ud v:nameU="CTypeTopRightSnip" v:prompt="" v:val="VT0(0):5"/>
					<v:ud v:nameU="CTypeBotLeftSnip" v:prompt="" v:val="VT0(0):5"/>
					<v:ud v:nameU="CTypeBotRightSnip" v:prompt="" v:val="VT0(0):5"/>
					<v:ud v:nameU="CornerLockHoriz" v:prompt="" v:val="VT0(1):5"/>
					<v:ud v:nameU="CornerLockVert" v:prompt="" v:val="VT0(1):5"/>
					<v:ud v:nameU="CornerLockDiag" v:prompt="" v:val="VT0(0):5"/>
					<v:ud v:nameU="TopLeftOffset" v:prompt="" v:val="VT0(0.15748031496063):24"/>
					<v:ud v:nameU="TopRightOffset" v:prompt="" v:val="VT0(0.15748031496063):24"/>
					<v:ud v:nameU="BotLeftOffset" v:prompt="" v:val="VT0(0.15748031496063):24"/>
					<v:ud v:nameU="BotRightOffset" v:prompt="" v:val="VT0(0.15748031496063):24"/>
					<v:ud v:nameU="visVersion" v:prompt="" v:val="VT0(15):26"/>
					<v:ud v:nameU="TopLeftOffset" v:prompt="" v:val="VT0(0.039289892523052):1"/>
					<v:ud v:nameU="TopRightOffset" v:prompt="" v:val="VT0(0.039289892523052):1"/>
					<v:ud v:nameU="BotLeftOffset" v:prompt="" v:val="VT0(0.039289892523052):1"/>
					<v:ud v:nameU="BotRightOffset" v:prompt="" v:val="VT0(0.039289892523052):1"/>
				</v:userDefs>
				<path d="M2.83 457.35 L102.39 457.35 A2.82883 2.82883 -180 0 0 105.21 454.52 L105.21 413.11 A2.82883 2.82883 -180
							 0 0 102.39 410.28 L2.83 410.28 A2.82883 2.82883 -180 0 0 0 413.11 L0 454.52 A2.82883 2.82883 -180 0
							 0 2.83 457.35 Z" class="st3"/>
			</g>
		</g>
	</g>
</svg>
