<?xml version="1.0" encoding="utf-8"?>
<!-- Uploaded to: SVG Repo, www.svgrepo.com, Generator: SVG Repo Mixer Tools -->
<svg fill="#000000" width="800px" height="800px" viewBox="0 0 32 32" version="1.1" xmlns="http://www.w3.org/2000/svg">
<title>diskette</title>
<path d="M0 26.016q0 1.92 1.12 3.488t2.88 2.144v-11.648q0-0.832 0.576-1.408t1.44-0.576h20q0.8 0 1.408 0.576t0.576 1.408v11.648q1.76-0.608 2.88-2.144t1.12-3.488v-20q0-1.952-1.12-3.488t-2.88-2.144v11.616q0 0.832-0.576 1.44t-1.408 0.576h-20q-0.832 0-1.44-0.576t-0.576-1.44v-11.616q-1.76 0.64-2.88 2.144t-1.12 3.488v20zM6.016 30.016q0 0.832 0.576 1.408t1.408 0.576h16q0.832 0 1.408-0.576t0.608-1.408v-8q0-0.832-0.608-1.408t-1.408-0.608h-16q-0.832 0-1.408 0.608t-0.576 1.408v8zM10.016 10.016q0 0.832 0.576 1.408t1.408 0.576h12q0.832 0 1.408-0.576t0.608-1.408v-8q0-0.832-0.608-1.408t-1.408-0.608h-12q-0.832 0-1.408 0.608t-0.576 1.408v8zM20 8v-4q0-0.832 0.576-1.408t1.44-0.576 1.408 0.576 0.576 1.408v4q0 0.832-0.576 1.44t-1.408 0.576-1.44-0.576-0.576-1.44z"></path>
</svg>