<?xml version="1.0" encoding="utf-8"?>
<!-- Uploaded to: SVG Repo, www.svgrepo.com, Generator: SVG Repo Mixer Tools -->
<svg fill="#000000" width="800px" height="800px" viewBox="0 0 32 32" version="1.1" xmlns="http://www.w3.org/2000/svg">
<title>alt-swap</title>
<path d="M0 24v-8q0-0.832 0.576-1.408t1.44-0.576h8q0.8 0 1.408 0.576t0.576 1.408v8q0 0.832-0.576 1.44t-1.408 0.576h-8q-0.832 0-1.44-0.576t-0.576-1.44zM4 22.016h4v-4h-4v4zM6.016 28h8v-8h1.984q0.832 0 1.408 0.608t0.608 1.408v8q0 0.832-0.608 1.408t-1.408 0.576h-8q-0.832 0-1.408-0.576t-0.576-1.408v-2.016zM10.016 5.984q0-0.832 0.576-1.408l4-4q0.48-0.448 1.088-0.544t1.088 0.128 0.896 0.736 0.352 1.12v1.984h4q2.464 0 4.224 1.76t1.76 4.256v4h2.016q0.64 0 1.152 0.352t0.704 0.896 0.096 1.12-0.576 1.024l-4 4q-0.576 0.608-1.408 0.608t-1.408-0.608l-4-4q-0.48-0.448-0.544-1.056t0.128-1.12 0.704-0.864 1.152-0.352h1.984v-4q0-0.832-0.576-1.408t-1.408-0.608h-4v2.016q0 0.64-0.384 1.152t-0.896 0.704-1.088 0.096-1.056-0.544l-4-4q-0.608-0.64-0.576-1.44z"></path>
</svg>