<?xml version="1.0" encoding="utf-8"?>
<!-- Uploaded to: SVG Repo, www.svgrepo.com, Generator: SVG Repo Mixer Tools -->
<svg fill="#000000" width="800px" height="800px" viewBox="0 0 32 32" version="1.1" xmlns="http://www.w3.org/2000/svg">
<title>plus-folder</title>
<path d="M0 26.016q0 2.496 1.76 4.224t4.256 1.76h16.992q2.432 0 4.512-1.216t3.296-3.296 1.184-4.48v-12.992q0-2.496-1.76-4.256t-4.224-1.76h-6.368q-0.64-1.76-2.176-2.88t-3.456-1.12h-8q-2.496 0-4.256 1.76t-1.76 4.256v20zM4 26.016v-20q0-0.832 0.576-1.408t1.44-0.608h8q0.8 0 1.408 0.608t0.576 1.408v1.984h10.016q0.8 0 1.408 0.576t0.576 1.408v5.536q-2.272-1.536-4.992-1.536-1.824 0-3.488 0.736t-2.88 1.92-1.92 2.848-0.704 3.52q0 2.72 1.504 4.992h-9.504q-0.832 0-1.44-0.576t-0.576-1.408zM18.016 23.008q0-2.080 1.44-3.552t3.552-1.472 3.52 1.472 1.472 3.552q0 2.080-1.504 3.52t-3.488 1.472q-2.080 0-3.552-1.472t-1.44-3.52zM20 24h2.016v1.984h1.984v-1.984h2.016v-2.016h-2.016v-1.984h-1.984v1.984h-2.016v2.016z"></path>
</svg>