<?xml version="1.0" encoding="utf-8"?>
<!-- Uploaded to: SVG Repo, www.svgrepo.com, Generator: SVG Repo Mixer Tools -->
<svg fill="#000000" width="800px" height="800px" viewBox="0 0 32 32" version="1.1" xmlns="http://www.w3.org/2000/svg">
<title>cogs</title>
<path d="M0 10.016q0-0.832 0.576-1.408t1.44-0.608h0.256q0.256-0.992 0.864-2.048l-0.192-0.16q-0.608-0.608-0.608-1.408t0.608-1.44 1.408-0.576 1.408 0.576l0.192 0.192q1.024-0.576 2.048-0.832v-0.288q0-0.832 0.576-1.408t1.44-0.608 1.408 0.608 0.576 1.408v0.288q0.992 0.224 2.048 0.832l0.192-0.192q0.576-0.576 1.44-0.576t1.408 0.576 0.576 1.408-0.576 1.408l-0.224 0.192q0.608 1.056 0.864 2.048h0.288q0.8 0 1.408 0.608t0.576 1.408-0.576 1.408-1.408 0.576h-0.288q-0.256 1.024-0.864 2.048l0.224 0.224q0.576 0.576 0.576 1.408t-0.576 1.408-1.408 0.576-1.44-0.576l-0.192-0.192q-1.056 0.576-2.048 0.832v0.288q0 0.832-0.576 1.408t-1.408 0.576-1.44-0.576-0.576-1.408v-0.288q-1.024-0.256-2.048-0.832l-0.192 0.192q-0.576 0.576-1.408 0.576t-1.408-0.576-0.608-1.408 0.608-1.408l0.192-0.224q-0.608-1.024-0.864-2.048h-0.256q-0.832 0-1.44-0.576t-0.576-1.408zM6.016 10.016q0 1.664 1.152 2.816t2.848 1.184 2.816-1.184 1.184-2.816-1.184-2.848-2.816-1.152-2.848 1.152-1.152 2.848zM16 24q0-0.832 0.576-1.408t1.44-0.576h0.352q0.096-0.256 0.224-0.576l-0.256-0.256q-0.576-0.576-0.576-1.408t0.576-1.408 1.44-0.608 1.408 0.608l0.224 0.224q0.32-0.096 0.608-0.192v-0.384q0-0.832 0.576-1.408t1.408-0.608 1.408 0.608 0.608 1.408v0.384q0.192 0.064 0.576 0.192l0.224-0.224q0.576-0.608 1.408-0.608t1.44 0.608 0.576 1.408-0.576 1.408l-0.256 0.256q0.032 0.096 0.096 0.288t0.128 0.288h0.384q0.8 0 1.408 0.576t0.576 1.408-0.576 1.44-1.408 0.576h-0.384q-0.064 0.192-0.224 0.576l0.256 0.256q0.576 0.576 0.576 1.408t-0.576 1.408-1.44 0.608-1.408-0.608l-0.224-0.256-0.576 0.256v0.352q0 0.832-0.608 1.408t-1.408 0.576-1.408-0.576-0.576-1.408v-0.352l-0.608-0.256-0.224 0.256q-0.576 0.608-1.408 0.608t-1.44-0.608-0.576-1.408 0.576-1.408l0.256-0.256q-0.16-0.384-0.224-0.576h-0.352q-0.832 0-1.44-0.576t-0.576-1.44zM20 24q0 1.664 1.184 2.848t2.816 1.152 2.816-1.152 1.184-2.848-1.184-2.816-2.816-1.184-2.816 1.184-1.184 2.816z"></path>
</svg>