<?xml version="1.0" encoding="utf-8"?>
<!-- Uploaded to: SVG Repo, www.svgrepo.com, Generator: SVG Repo Mixer Tools -->
<svg fill="#000000" width="800px" height="800px" viewBox="0 0 32 32" version="1.1" xmlns="http://www.w3.org/2000/svg">
<title>alt-reload</title>
<path d="M0.032 17.632q0.096-0.608 0.544-1.056l4-4q0.64-0.608 1.44-0.576t1.376 0.576l4 4q0.48 0.48 0.576 1.088t-0.128 1.12-0.704 0.864-1.12 0.352h-2.016v2.016q0 0.832 0.576 1.408t1.44 0.576h12q0.832 0 1.408-0.608 2.080 1.024 4.288 0.32-0.576 1.888-2.144 3.072t-3.552 1.216h-12q-2.496 0-4.256-1.76t-1.76-4.256v-1.984h-1.984q-0.672 0-1.184-0.384t-0.704-0.864-0.096-1.12zM4.288 8.288q0.576-1.856 2.144-3.072t3.584-1.216h12q2.464 0 4.224 1.76t1.76 4.256v1.984h2.016q0.64 0 1.152 0.384t0.704 0.864 0.096 1.12-0.576 1.056l-4 4q-0.608 0.608-1.408 0.608t-1.408-0.608l-4-4q-0.48-0.448-0.544-1.056t0.128-1.152 0.704-0.864 1.152-0.352h1.984v-1.984q0-0.832-0.576-1.408t-1.408-0.608h-12q-0.864 0-1.44 0.608-2.080-0.992-4.288-0.32z"></path>
</svg>