<?xml version="1.0" encoding="utf-8"?>
<!-- Uploaded to: SVG Repo, www.svgrepo.com, Generator: SVG Repo Mixer Tools -->
<svg fill="#000000" width="800px" height="800px" viewBox="0 0 32 32" version="1.1" xmlns="http://www.w3.org/2000/svg">
<title>alt-camera</title>
<path d="M0 30.016q0 0.832 0.576 1.408t1.44 0.576h28q0.8 0 1.408-0.576t0.576-1.408v-22.016q0-0.832-0.576-1.408t-1.408-0.576h-8v-4q0-0.832-0.608-1.408t-1.408-0.608h-8q-0.832 0-1.408 0.608t-0.576 1.408v4h-4v-2.016h-2.016v2.016h-1.984q-0.832 0-1.44 0.576t-0.576 1.408v22.016zM4 28v-9.984h6.368q-0.352 0.992-0.352 1.984 0 2.496 1.728 4.256t4.256 1.76 4.256-1.76 1.76-4.256q0-0.96-0.384-1.984h6.368v9.984h-24zM4 16v-5.984h24v5.984h-7.552q-1.184-1.312-2.848-1.76t-3.264 0-2.784 1.76h-7.552zM6.016 14.016h1.984v-2.016h-1.984v2.016zM10.016 14.016h1.984v-2.016h-1.984v2.016zM12 20q0-1.632 1.184-2.816t2.816-1.184 2.816 1.184 1.184 2.816-1.184 2.848-2.816 1.152-2.816-1.152-1.184-2.848zM14.016 6.016v-2.016h4v2.016h-4zM22.016 14.016h4v-2.016h-4v2.016z"></path>
</svg>